<svg id="Capa_1" data-name="Capa 1" xmlns="http://www.w3.org/2000/svg" viewBox="0 0 24.29 43.44"><defs><style>.cls-1{fill:#EFC1AC;}</style></defs><title>svg</title><g id="Correo_electrónico" data-name="Correo electrónico"><path class="cls-1" d="M12.14,1.85A11.56,11.56,0,0,0,.59,13.4c0,8.43,9.24,25.53,10.29,27.45a1.43,1.43,0,0,0,2.52,0C13.82,40.09,23.69,22,23.69,13.4A11.56,11.56,0,0,0,12.14,1.85ZM20.82,13.4c0,6.13-6.08,18.62-8.68,23.68C9.54,32,3.46,19.53,3.46,13.4a8.68,8.68,0,1,1,17.36,0Z"/><path class="cls-1" d="M12.14,8.9a4.75,4.75,0,1,0,4.75,4.75A4.75,4.75,0,0,0,12.14,8.9Zm0,6.63A1.88,1.88,0,1,1,14,13.65,1.88,1.88,0,0,1,12.14,15.53Z"/></g></svg>