<svg id="Capa_1" data-name="Capa 1" xmlns="http://www.w3.org/2000/svg" viewBox="0 0 38.52 38.95"><defs><style>.cls-1{fill:#EFC1AC;}</style></defs><title>svg</title><g id="Correo_electrónico" data-name="Correo electrónico"><path class="cls-1" d="M35.53,25.26A9.75,9.75,0,0,0,28,21.2h0a5,5,0,0,0-3.82,1.9,7.52,7.52,0,0,0-1.56,3.34,25.48,25.48,0,0,1-5.71-4.12,35.56,35.56,0,0,1-4.4-5.71l.55-.12a7.31,7.31,0,0,0,4.75-3.25A5.14,5.14,0,0,0,18.22,9a12.7,12.7,0,0,0-7.6-7.62A8.19,8.19,0,0,0,8.06,1,6.76,6.76,0,0,0,4,2.3C1.1,4.42.88,8,1,10.48c.23,6.66,3.6,13.18,10,19.4,2.51,2.44,9.22,8.1,17.24,8.1a17,17,0,0,0,3.15-.29,7.31,7.31,0,0,0,5.94-5.06A8.41,8.41,0,0,0,35.53,25.26ZM10.41,13.94h-.35A1.45,1.45,0,0,0,8.8,16.08a44.72,44.72,0,0,0,6.08,8.29A28.79,28.79,0,0,0,23.44,30a1.45,1.45,0,0,0,2-1.56,4.73,4.73,0,0,1,1-3.51,2.2,2.2,0,0,1,1.69-.87A7.12,7.12,0,0,1,33.23,27a5.58,5.58,0,0,1,1.29,4.8,4.43,4.43,0,0,1-3.7,3,14,14,0,0,1-2.61.24c-7,0-13-5.09-15.22-7.28C7.14,22.12,4.07,16.26,3.87,10.38c-.1-2.92.48-4.74,1.85-5.73a3.92,3.92,0,0,1,2.35-.77,5.3,5.3,0,0,1,1.64.28,9.88,9.88,0,0,1,5.74,5.75,2.26,2.26,0,0,1-.16,1.9,4.47,4.47,0,0,1-2.87,1.86A9.32,9.32,0,0,1,10.41,13.94Z"/></g></svg>