<svg id="Design" xmlns="http://www.w3.org/2000/svg" viewBox="0 0 50 50"><defs><style>.cls-1{fill:#333372;}</style></defs><title>svg</title><circle class="cls-1" cx="38.7" cy="11.61" r="3.06"/><path class="cls-1" d="M25.09,37.55A12.23,12.23,0,1,1,37.32,25.32,12.25,12.25,0,0,1,25.09,37.55Zm0-20.14a7.9,7.9,0,1,0,7.9,7.9A7.91,7.91,0,0,0,25.09,17.42Z"/><path class="cls-1" d="M15.12,49.81A15,15,0,0,1,.19,34.88V15.12A15,15,0,0,1,15.12.19H34.88A15,15,0,0,1,49.81,15.12V34.88A15,15,0,0,1,34.88,49.81Zm0-45A10.33,10.33,0,0,0,4.8,15.12V34.88A10.33,10.33,0,0,0,15.12,45.2H34.88A10.33,10.33,0,0,0,45.2,34.88V15.12A10.33,10.33,0,0,0,34.88,4.8Z"/></svg>