<svg id="Capa_1" data-name="Capa 1" xmlns="http://www.w3.org/2000/svg" viewBox="0 0 98 213.17"><defs><style>.cls-1{fill:#fff;}</style></defs><title>svg_Scroll</title><path class="cls-1" d="M49,8A41,41,0,0,1,90,49v61a41,41,0,0,1-82,0V49A41,41,0,0,1,49,8m0-8h0A49.14,49.14,0,0,0,0,49v61a49.14,49.14,0,0,0,49,49h0a49.14,49.14,0,0,0,49-49V49A49.14,49.14,0,0,0,49,0Z"/><path class="cls-1" d="M49,68a4,4,0,0,1-4-4V31a4,4,0,0,1,8,0V64A4,4,0,0,1,49,68Z"/><path class="cls-1" d="M49,213.17A4,4,0,0,1,46.17,212L22.84,188.67A4,4,0,0,1,28.49,183L49,203.52,69.51,183a4,4,0,0,1,5.66,5.66L51.83,212A4,4,0,0,1,49,213.17Z"/></svg>