<svg id="Design" xmlns="http://www.w3.org/2000/svg" viewBox="0 0 52.35 50"><defs><style>.cls-1{fill:#333372;}</style></defs><title>svg</title><path class="cls-1" d="M52.35,30.67v18.5a.83.83,0,0,1-.83.83H42a.83.83,0,0,1-.83-.83V32c0-4.53-1.62-7.62-5.68-7.62a6.13,6.13,0,0,0-5.75,4.1,7.67,7.67,0,0,0-.37,2.73v18a.83.83,0,0,1-.83.83H19a.82.82,0,0,1-.83-.83c0-4.58.12-26.82,0-32a.82.82,0,0,1,.83-.84h9.53a.83.83,0,0,1,.83.83v3.95l-.07.11h.07v-.11a11.13,11.13,0,0,1,10.1-5.57c7.37,0,12.9,4.82,12.9,15.17ZM1.56,50h9.55a.83.83,0,0,0,.83-.83V17.12a.83.83,0,0,0-.83-.83H1.56a.83.83,0,0,0-.83.83V49.17A.83.83,0,0,0,1.56,50Z"/><circle class="cls-1" cx="6" cy="6" r="6"/></svg>