<svg id="Design" xmlns="http://www.w3.org/2000/svg" viewBox="0 0 50 50"><defs><style>.cls-1{fill:#333372;fill-rule:evenodd;}</style></defs><title>svg</title><path class="cls-1" d="M25,0C11.19,0,0,11.48,0,25.63A25.59,25.59,0,0,0,17.1,50c1.25.24,1.71-.56,1.71-1.24s0-2.22,0-4.36c-7,1.55-8.42-3.44-8.42-3.44-1.14-3-2.78-3.75-2.78-3.75-2.27-1.59.17-1.56.17-1.56a5.27,5.27,0,0,1,3.83,2.64c2.23,3.92,5.85,2.79,7.28,2.13A5.53,5.53,0,0,1,20.44,37C14.89,36.31,9,34.12,9,24.29a10,10,0,0,1,2.57-6.88,9.44,9.44,0,0,1,.25-6.78s2.1-.69,6.87,2.63a23.13,23.13,0,0,1,12.52,0c4.77-3.32,6.87-2.63,6.87-2.63a9.42,9.42,0,0,1,.25,6.78,10,10,0,0,1,2.57,6.88c0,9.85-5.85,12-11.41,12.65a6.2,6.2,0,0,1,1.7,4.75c0,3.43,0,6.19,0,7,0,.69.45,1.48,1.72,1.23A25.59,25.59,0,0,0,50,25.63C50,11.48,38.81,0,25,0Z"/></svg>