<svg id="Design" xmlns="http://www.w3.org/2000/svg" viewBox="0 0 72.15 45.09"><defs><style>.cls-1{fill:#333372;}</style></defs><title>svg</title><path class="cls-1" d="M65.18,6H46a.9.9,0,0,1-.9-.9V.95A.9.9,0,0,1,46,0h19.2a.9.9,0,0,1,.9.9v4.2A.9.9,0,0,1,65.18,6Zm4.71,30a.9.9,0,0,1,.8,1.33C68.82,41,64.15,45,56,45c-9.22,0-16.69-5.19-16.69-17s7-17.76,16.4-17.76c9.25,0,14.89,5.35,16.13,13.28a36.42,36.42,0,0,1,.29,5.53.9.9,0,0,1-.9.89H48c.39,9.63,10.45,9.94,13.76,6.09ZM48.2,24h14.9c-.31-4.64-3.41-6.66-7.43-6.66C51.26,17.39,48.83,19.69,48.2,24ZM19.47,45H1a.9.9,0,0,1-.9-.9V1A.9.9,0,0,1,1,.11h20c16.43.24,16.74,16.33,8.16,20.72C39.48,24.61,39.83,45,19.47,45ZM9.08,18H19.83c7.52,0,8.72-9-.94-9H9.08Zm10.17,9H9.08v9h10C28.26,36.1,27.7,27,19.25,27Z"/></svg>