<svg id="Capa_1" data-name="Capa 1" xmlns="http://www.w3.org/2000/svg" viewBox="0 0 46.32 31.79"><defs><style>.cls-1{fill:#EFC1AC;}</style></defs><title>svg</title><g id="Correo_electrónico" data-name="Correo electrónico"><path class="cls-1" d="M39.56,1.64H6.76A3.92,3.92,0,0,0,2.84,5.56V26.24a3.92,3.92,0,0,0,3.92,3.92h32.8a3.92,3.92,0,0,0,3.92-3.92V5.56A3.92,3.92,0,0,0,39.56,1.64Zm1.09,24.6a1.09,1.09,0,0,1-1.09,1.09H6.76a1.09,1.09,0,0,1-1.09-1.09V5.77L23,17.53l.06.1,0,0,0,0,.07-.1L40.65,6Zm-17.48-12L8.81,4.47h29Z"/></g></svg>